<?xml version="1.0" encoding="UTF-8"?> <svg xmlns="http://www.w3.org/2000/svg" width="169" height="99" viewBox="0 0 169 99" fill="none"> <path d="M23.6367 44.276V86.7535C23.6367 98.058 24.8356 95.917 34.9412 96.6877V99H0V96.6877C10.5337 96.0882 12.0753 98.4862 12.0753 86.9247V44.1047C12.0753 32.5433 10.5337 31.173 0 30.5735V28.2612H34.8555V30.5735C24.8356 31.3443 23.6367 32.9715 23.6367 44.276Z" fill="white"></path> <path d="M17.2992 14.1306C13.4453 14.1306 10.3623 11.0476 10.3623 7.10814C10.3623 3.25433 13.531 0.0856476 17.3848 0.0856476C21.4099 0.0856476 24.4929 3.25433 24.4929 7.10814C24.4929 11.0476 21.4955 14.1306 17.2992 14.1306Z" fill="white"></path> <path d="M69.54 33.9135L66.2 42.3919H41.9639V41.6211L53.0114 29.8884C58.835 23.7223 61.0616 19.0121 61.0616 13.7881C61.0616 8.13581 57.9786 4.62457 52.7545 4.62457C50.6135 4.62457 48.6438 5.56661 47.2736 6.67993C47.2736 6.67993 45.3038 8.39273 46.2459 9.24914C46.4172 9.42042 46.7597 9.67734 46.931 9.84862C47.3592 10.3625 47.6161 10.9619 47.6161 11.5614C47.6161 13.0173 46.4172 14.2163 44.9613 14.2163C44.0192 14.2163 43.0772 13.7024 42.7346 12.9317C42.1351 11.8183 42.649 10.4481 42.649 10.4481C44.1905 4.36765 49.5858 0 56.3514 0C63.3739 0 67.6559 4.79585 67.8272 10.8763C67.9985 16.9567 65.0867 21.8382 60.2909 26.7197L51.1274 36.5683H63.3739C65.9431 36.5683 66.2857 36.9965 68.341 33.4853L69.54 33.9135Z" fill="white"></path> <path d="M41.4497 62.517C41.4497 62.0032 41.621 61.575 41.8779 61.1468C42.1348 60.8042 42.563 60.4617 43.1625 60.2904C43.6764 60.1191 44.2758 59.9478 44.961 59.9478C45.3892 59.9478 45.8174 59.9478 46.2456 60.0335C46.6738 60.1191 47.102 60.2048 47.4445 60.2904V59.6053C47.4445 58.9201 47.2732 58.3207 46.845 57.8925C46.4168 57.4643 45.8174 57.293 45.1322 57.293C44.704 57.293 44.2758 57.3786 43.8476 57.5499C43.4194 57.7212 42.9912 57.9781 42.4774 58.3207L41.9635 57.5499C42.4774 57.2073 43.0769 56.8648 43.5907 56.6935C44.1046 56.5222 44.6184 56.4366 45.2179 56.4366C46.2456 56.4366 47.0163 56.6935 47.6158 57.293C48.2153 57.8925 48.4722 58.6632 48.4722 59.6909V63.5447C48.4722 63.716 48.4722 63.8016 48.5578 63.8873C48.6435 63.9729 48.7291 63.9729 48.9004 63.9729V64.8293C48.8148 64.8293 48.6435 64.8293 48.5578 64.8293C48.4722 64.8293 48.3866 64.8293 48.3866 64.8293C48.1296 64.8293 47.8727 64.7437 47.7871 64.5724C47.6158 64.4011 47.5302 64.2298 47.5302 64.0586V63.4591C47.1876 63.9729 46.6738 64.3155 46.0743 64.5724C45.4748 64.8293 44.8753 65.0006 44.2758 65.0006C43.762 65.0006 43.2481 64.915 42.8199 64.658C42.3917 64.4011 42.0492 64.1442 41.7923 63.716C41.5353 63.3734 41.4497 62.9452 41.4497 62.517ZM47.0163 63.1165C47.102 62.9452 47.1876 62.8596 47.2732 62.6883C47.3589 62.517 47.3589 62.4314 47.3589 62.3458V61.1468C47.0163 60.9755 46.5881 60.8899 46.2456 60.8042C45.8174 60.7186 45.4748 60.7186 45.0466 60.7186C44.2758 60.7186 43.6764 60.8899 43.1625 61.1468C42.6487 61.4894 42.4774 61.8319 42.4774 62.4314C42.4774 62.774 42.563 63.0309 42.7343 63.2878C42.9056 63.5447 43.1625 63.8016 43.4194 63.9729C43.762 64.1442 44.1046 64.2298 44.5328 64.2298C45.0466 64.2298 45.5604 64.1442 45.9886 63.8873C46.4168 63.716 46.7594 63.4591 47.0163 63.1165Z" fill="white"></path> <path d="M50.8701 64.9152V56.5225H55.8372V57.4645H51.8978V64.8296H50.8701V64.9152Z" fill="white"></path> <path d="M60.9757 65.0009C60.3762 65.0009 59.8623 64.9152 59.3485 64.6583C58.8347 64.4014 58.4065 64.1445 57.9783 63.7163C57.6357 63.2881 57.2931 62.8599 57.1219 62.346C56.9506 61.8322 56.7793 61.2327 56.7793 60.6332C56.7793 59.8625 56.9506 59.1773 57.2931 58.4922C57.6357 57.8071 58.1495 57.2933 58.749 56.9507C59.3485 56.5225 60.1193 56.3512 60.89 56.3512C61.7464 56.3512 62.4315 56.5225 63.031 56.9507C63.6305 57.3789 64.1443 57.8927 64.4869 58.4922C64.8295 59.0917 65.0864 59.9481 65.0864 60.6332C65.0864 60.7189 65.0864 60.8045 65.0864 60.8901C65.0864 60.9758 65.0864 61.0614 65.0864 61.0614H57.8926C57.9783 61.6609 58.1495 62.1747 58.4065 62.6886C58.6634 63.1168 59.0916 63.545 59.5198 63.8019C59.948 64.0588 60.4618 64.2301 60.9757 64.2301C61.4895 64.2301 62.0033 64.0588 62.5172 63.8019C63.031 63.545 63.3736 63.2024 63.5449 62.6886L64.4869 62.9455C64.3156 63.3737 64.0587 63.7163 63.7161 64.0588C63.3736 64.4014 62.9454 64.6583 62.4315 64.8296C62.0033 64.9152 61.4895 65.0009 60.9757 65.0009ZM57.8926 60.2907H64.0587C63.9731 59.6912 63.8874 59.1773 63.5449 58.6635C63.2879 58.2353 62.8597 57.8927 62.4315 57.5502C62.0033 57.2932 61.4895 57.122 60.89 57.122C60.3762 57.122 59.8623 57.2932 59.4341 57.5502C59.0059 57.8071 58.5777 58.1497 58.3208 58.6635C58.0639 59.1773 57.9783 59.6912 57.8926 60.2907Z" fill="white"></path> <path d="M66.7993 64.9152V56.5225H67.9126V60.1194H72.7085V56.5225H73.8218V64.8296H72.7085V61.0614H67.9126V64.8296H66.7993V64.9152Z" fill="white"></path> <path d="M78.2747 64.9152V57.5502H75.2773V56.5225H82.2998V57.4645H79.3024V64.8296H78.2747V64.9152Z" fill="white"></path> <path d="M87.4383 65.0009C86.8388 65.0009 86.2393 64.9152 85.7255 64.6583C85.2116 64.4014 84.7834 64.1445 84.3552 63.7163C84.0127 63.2881 83.6701 62.8599 83.4988 62.346C83.3275 61.8322 83.1562 61.2327 83.1562 60.7189C83.1562 59.9481 83.3275 59.1773 83.6701 58.5779C84.0127 57.8927 84.5265 57.3789 85.126 57.0363C85.7255 56.6938 86.4962 56.4369 87.267 56.4369C88.0377 56.4369 88.7229 56.6081 89.3223 56.9507C89.9218 57.2933 90.35 57.8071 90.6926 58.4066L89.6649 58.7491C89.408 58.3209 89.0654 57.9784 88.6372 57.7215C88.209 57.4645 87.7808 57.3789 87.267 57.3789C86.7531 57.3789 86.2393 57.5502 85.7255 57.8071C85.2973 58.064 84.8691 58.4922 84.6121 59.0061C84.3552 59.5199 84.1839 60.0337 84.1839 60.7189C84.1839 61.3183 84.3552 61.9178 84.6121 62.4317C84.8691 62.9455 85.2973 63.3737 85.7255 63.6306C86.1537 63.9732 86.6675 64.0588 87.267 64.0588C87.6095 64.0588 87.9521 63.9732 88.2947 63.8875C88.6372 63.8019 88.8941 63.545 89.1511 63.3737C89.408 63.1168 89.5793 62.9455 89.6649 62.6886L90.7782 63.0311C90.6069 63.4593 90.35 63.8019 90.0075 64.0588C89.6649 64.4014 89.2367 64.6583 88.8085 64.8296C88.4659 64.9152 87.9521 65.0009 87.4383 65.0009Z" fill="white"></path> <path d="M94.7181 64.9152V57.5502H91.7207V56.5225H98.7432V57.4645H95.7458V64.8296H94.7181V64.9152Z" fill="white"></path> <path d="M100.285 64.9152V56.5225H104.481C104.909 56.5225 105.337 56.6081 105.68 56.7794C106.023 56.9507 106.279 57.2076 106.451 57.5502C106.622 57.8927 106.708 58.1497 106.708 58.5779C106.708 59.0061 106.622 59.4343 106.365 59.7768C106.108 60.1194 105.851 60.3763 105.423 60.5476C105.937 60.7189 106.279 60.9758 106.622 61.3183C106.879 61.6609 107.05 62.0891 107.05 62.6029C107.05 63.0311 106.965 63.4593 106.708 63.8019C106.451 64.1445 106.194 64.4014 105.851 64.5727C105.509 64.7439 104.995 64.8296 104.567 64.8296H100.285V64.9152ZM101.312 60.2907H104.138C104.395 60.2907 104.652 60.205 104.909 60.0337C105.081 59.8625 105.252 59.6912 105.423 59.4343C105.509 59.1773 105.594 58.9204 105.594 58.6635C105.594 58.3209 105.509 57.9784 105.252 57.6358C104.995 57.3789 104.652 57.2076 104.31 57.2076H101.398V60.2907H101.312ZM101.312 64.0588H104.395C104.652 64.0588 104.909 63.9732 105.166 63.8019C105.423 63.6306 105.594 63.4593 105.68 63.2024C105.851 62.9455 105.851 62.6886 105.851 62.4317C105.851 62.1747 105.766 61.9178 105.68 61.6609C105.594 61.404 105.337 61.2327 105.166 61.1471C104.909 60.9758 104.738 60.9758 104.395 60.9758H101.227V64.0588H101.312Z" fill="white"></path> <path d="M112.445 65.0009C111.846 65.0009 111.332 64.9152 110.818 64.6583C110.304 64.4014 109.876 64.1445 109.533 63.7163C109.191 63.2881 108.848 62.8599 108.677 62.346C108.506 61.8322 108.334 61.3183 108.334 60.7189C108.334 60.1194 108.42 59.6055 108.677 59.0917C108.848 58.5779 109.191 58.1497 109.533 57.7215C109.876 57.2933 110.39 57.0363 110.818 56.7794C111.332 56.5225 111.846 56.4369 112.445 56.4369C113.045 56.4369 113.559 56.5225 114.072 56.7794C114.586 57.0363 115.014 57.2933 115.357 57.7215C115.7 58.1497 116.042 58.5779 116.213 59.0917C116.385 59.6055 116.556 60.205 116.556 60.7189C116.556 61.3183 116.47 61.8322 116.213 62.346C116.042 62.8599 115.7 63.2881 115.357 63.7163C115.014 64.1445 114.586 64.4014 114.072 64.6583C113.559 64.9152 113.045 65.0009 112.445 65.0009ZM109.362 60.7189C109.362 61.3183 109.533 61.9178 109.79 62.4317C110.047 62.9455 110.39 63.3737 110.904 63.6306C111.332 63.8875 111.846 64.0588 112.445 64.0588C112.959 64.0588 113.473 63.8875 113.987 63.6306C114.415 63.3737 114.843 62.9455 115.1 62.4317C115.357 61.9178 115.528 61.3183 115.528 60.7189C115.528 60.1194 115.357 59.5199 115.1 59.0061C114.843 58.4922 114.415 58.064 113.987 57.8071C113.559 57.5502 113.045 57.3789 112.445 57.3789C111.931 57.3789 111.418 57.5502 110.904 57.8071C110.475 58.1497 110.047 58.4922 109.79 59.0061C109.533 59.6055 109.362 60.1194 109.362 60.7189Z" fill="white"></path> <path d="M42.1348 81.872V73.5649H43.2481V77.0761H47.9583V73.4792H49.0716V81.7863H47.9583V78.0182H43.1624V81.7863H42.1348V81.872Z" fill="white"></path> <path d="M55.0665 82.0433C54.467 82.0433 53.9532 81.9576 53.4393 81.7007C52.9255 81.4438 52.4973 81.1869 52.0691 80.7587C51.7265 80.3305 51.384 79.9022 51.2127 79.3884C51.0414 78.8746 50.8701 78.2751 50.8701 77.6756C50.8701 76.9048 51.0414 76.2197 51.384 75.5346C51.7265 74.8495 52.2404 74.3356 52.8398 73.9931C53.4393 73.5649 54.2101 73.3936 54.9808 73.3936C55.8372 73.3936 56.5224 73.5649 57.1218 73.9931C57.7213 74.4213 58.2352 74.9351 58.5777 75.5346C58.9203 76.2197 59.0916 76.9048 59.0916 77.6756C59.0916 77.7612 59.0916 77.8469 59.0916 77.9325C59.0916 78.0182 59.0916 78.1038 59.0916 78.1038H51.8978C51.9834 78.7033 52.1547 79.2171 52.4116 79.731C52.6686 80.1592 53.0968 80.5874 53.525 80.8443C53.9532 81.1012 54.467 81.2725 54.9808 81.2725C55.4947 81.2725 56.0085 81.1012 56.5224 80.8443C57.0362 80.5874 57.3788 80.2448 57.55 79.731L58.4921 79.9879C58.3208 80.4161 58.0639 80.7586 57.7213 81.1012C57.3788 81.4438 56.9506 81.7007 56.4367 81.872C56.1798 81.9576 55.666 82.0433 55.0665 82.0433ZM51.9834 77.2474H58.1495C58.0639 76.6479 57.9783 76.1341 57.6357 75.6202C57.3788 75.192 56.9506 74.8495 56.5224 74.5069C56.0942 74.25 55.5803 74.0787 54.9808 74.0787C54.3814 74.0787 53.9532 74.25 53.525 74.5069C53.0968 74.7638 52.6686 75.1064 52.4116 75.6202C52.2404 76.1341 52.0691 76.7336 51.9834 77.2474Z" fill="white"></path> <path d="M59.9478 83.7561V80.8443H60.119C60.376 80.8443 60.5472 80.7586 60.8042 80.5874C60.9754 80.4161 61.1467 80.1592 61.318 79.8166C61.4893 79.474 61.5749 78.9602 61.6606 78.2751C61.7462 77.59 61.8318 76.8192 61.8318 75.7915L61.9175 73.4792H67.3984V80.8443H68.5118V83.7561H67.5697V81.7863H60.8898V83.7561H59.9478ZM61.7462 80.8443H66.2851V74.5069H62.9452L62.8595 75.9628C62.8595 76.9905 62.7739 77.7612 62.6882 78.4464C62.6026 79.1315 62.4313 79.6453 62.3457 79.9879C62.1744 80.4161 62.0031 80.673 61.7462 80.8443Z" fill="white"></path> <path d="M70.2246 81.872V73.5649H74.421C74.8492 73.5649 75.2774 73.6505 75.6199 73.8218C75.9625 73.9931 76.2194 74.25 76.3907 74.5926C76.562 74.9351 76.6476 75.192 76.6476 75.6202C76.6476 76.0484 76.562 76.4766 76.3051 76.8192C76.0481 77.1618 75.7912 77.4187 75.363 77.59C75.8769 77.7612 76.2194 78.0182 76.562 78.3607C76.8189 78.7033 76.9902 79.1315 76.9902 79.6453C76.9902 80.0735 76.9045 80.5017 76.6476 80.8443C76.3907 81.1869 76.1338 81.4438 75.7912 81.6151C75.4487 81.7863 74.9348 81.872 74.5066 81.872H70.2246ZM71.2523 77.2474H74.0784C74.3353 77.2474 74.5923 77.1618 74.8492 76.9905C75.0205 76.8192 75.1917 76.6479 75.363 76.391C75.4487 76.1341 75.5343 75.8772 75.5343 75.6202C75.5343 75.2777 75.4487 74.9351 75.1917 74.5926C74.9348 74.3356 74.5923 74.1644 74.2497 74.1644H71.3379V77.2474H71.2523ZM71.2523 81.0156H74.3353C74.5923 81.0156 74.8492 80.9299 75.1061 80.7587C75.363 80.5874 75.5343 80.4161 75.6199 80.1592C75.7912 79.9022 75.7912 79.6453 75.7912 79.3884C75.7912 79.1315 75.7056 78.8746 75.6199 78.6177C75.5343 78.3607 75.2774 78.1894 75.1061 78.1038C74.8492 77.9325 74.6779 77.9325 74.3353 77.9325H71.1666V81.0156H71.2523Z" fill="white"></path> <path d="M78.7886 81.872V73.5649H79.9019V80.4161L84.9547 73.5649H85.8967V81.872H84.7834V75.1064L79.8163 81.872H78.7886Z" fill="white"></path> <path d="M87.7812 81.872L90.9499 77.59L88.1238 73.5649H89.3228L91.8063 77.1618H92.9197V73.5649H94.033V77.0761H95.1463L97.6299 73.4792H98.9145L96.0883 77.5043L99.257 81.7863H97.9724L95.2319 78.0182H94.1186V81.7863H93.0053V78.0182H91.892L89.0659 81.7863H87.7812V81.872Z" fill="white"></path> <path d="M100.97 81.872V73.5649H102.083V80.4161L107.136 73.5649H108.078V81.872H107.05V75.1064L102.083 81.872H100.97Z" fill="white"></path> <path d="M110.562 81.872V73.5649H111.675L115.015 79.3028L118.355 73.5649H119.468V81.872H118.44V75.192L115.443 80.4161H114.758L111.675 75.192V81.872H110.562Z" fill="white"></path> <path d="M125.377 82.0433C124.777 82.0433 124.264 81.9576 123.75 81.7007C123.236 81.4438 122.808 81.1869 122.465 80.7587C122.123 80.3305 121.78 79.9022 121.609 79.3884C121.437 78.8746 121.266 78.3607 121.266 77.7612C121.266 77.1618 121.352 76.6479 121.609 76.1341C121.78 75.6202 122.123 75.192 122.465 74.7638C122.808 74.3356 123.321 74.0787 123.75 73.8218C124.264 73.5649 124.777 73.4792 125.377 73.4792C125.976 73.4792 126.49 73.5649 127.004 73.8218C127.518 74.0787 127.946 74.3356 128.289 74.7638C128.631 75.192 128.974 75.6202 129.145 76.1341C129.316 76.6479 129.488 77.2474 129.488 77.7612C129.488 78.3607 129.402 78.8746 129.145 79.3884C128.974 79.9022 128.631 80.3305 128.289 80.7587C127.946 81.1869 127.518 81.4438 127.004 81.7007C126.49 81.872 125.976 82.0433 125.377 82.0433ZM122.294 77.7612C122.294 78.3607 122.465 78.9602 122.722 79.474C122.979 79.9879 123.321 80.4161 123.835 80.673C124.264 80.9299 124.777 81.1012 125.377 81.1012C125.891 81.1012 126.405 80.9299 126.918 80.673C127.347 80.4161 127.775 79.9879 128.032 79.474C128.289 78.9602 128.46 78.3607 128.46 77.7612C128.46 77.1618 128.289 76.5623 128.032 76.0484C127.775 75.5346 127.347 75.1064 126.918 74.8495C126.49 74.5926 125.976 74.4213 125.377 74.4213C124.863 74.4213 124.349 74.5926 123.835 74.8495C123.407 75.192 122.979 75.5346 122.722 76.0484C122.465 76.5623 122.294 77.0761 122.294 77.7612Z" fill="white"></path> <path d="M134.969 82.0433C134.369 82.0433 133.77 81.9576 133.256 81.7007C132.742 81.4438 132.314 81.1869 131.885 80.7587C131.543 80.3305 131.2 79.9022 131.029 79.3884C130.858 78.8746 130.687 78.2751 130.687 77.7612C130.687 76.9905 130.858 76.2197 131.2 75.6202C131.543 75.0208 132.057 74.4213 132.656 74.0787C133.256 73.7362 134.026 73.4792 134.797 73.4792C135.568 73.4792 136.253 73.6505 136.853 73.9931C137.452 74.3356 137.88 74.8495 138.223 75.449L137.195 75.7915C136.938 75.3633 136.596 75.0208 136.167 74.7638C135.739 74.5069 135.311 74.4213 134.797 74.4213C134.283 74.4213 133.77 74.5926 133.256 74.8495C132.828 75.1064 132.399 75.5346 132.142 76.0484C131.885 76.5623 131.714 77.0761 131.714 77.7612C131.714 78.3607 131.885 78.9602 132.142 79.474C132.399 79.9879 132.828 80.4161 133.256 80.673C133.684 81.0156 134.198 81.1012 134.797 81.1012C135.14 81.1012 135.482 81.0156 135.825 80.9299C136.167 80.8443 136.424 80.5874 136.681 80.4161C136.938 80.1592 137.11 79.9879 137.195 79.731L138.308 80.0735C138.137 80.5017 137.88 80.8443 137.538 81.1012C137.195 81.4438 136.767 81.7007 136.339 81.872C135.996 81.9576 135.482 82.0433 134.969 82.0433Z" fill="white"></path> <path d="M142.248 81.872V74.5069H139.251V73.5649H146.273V74.5069H143.276V81.872H142.248Z" fill="white"></path> <path d="M147.815 81.872V73.5649H148.928V80.4161L153.981 73.5649H154.923V81.872H153.81V75.1064L148.843 81.872H147.815Z" fill="white"></path> <path d="M42.1348 98.8287V90.5216H46.2455C46.6737 90.5216 47.1019 90.6073 47.4445 90.7785C47.787 90.9498 48.0439 91.2067 48.2152 91.5493C48.3865 91.8919 48.4721 92.1488 48.4721 92.577C48.4721 93.0052 48.3865 93.4334 48.1296 93.7759C47.8727 94.1185 47.6157 94.3754 47.1875 94.5467C47.7014 94.718 48.0439 94.9749 48.3865 95.3175C48.6434 95.66 48.8147 96.0882 48.8147 96.6021C48.8147 97.0303 48.7291 97.4585 48.4721 97.801C48.2152 98.1436 47.9583 98.4005 47.6157 98.5718C47.2732 98.7431 46.7593 98.8287 46.3311 98.8287H42.1348ZM43.1624 94.2042H45.9886C46.2455 94.2042 46.5024 94.1185 46.7593 93.9472C46.9306 93.7759 47.1019 93.6047 47.2732 93.3477C47.3588 93.0908 47.4445 92.8339 47.4445 92.577C47.4445 92.2344 47.3588 91.8919 47.1019 91.5493C46.845 91.2924 46.5024 91.1211 46.1599 91.1211H43.2481V94.2042H43.1624ZM43.1624 98.058H46.2455C46.5024 98.058 46.7593 97.9723 47.0163 97.801C47.2732 97.6298 47.4445 97.4585 47.5301 97.2016C47.7014 96.9446 47.7014 96.6877 47.7014 96.4308C47.7014 96.1739 47.6157 95.917 47.5301 95.66C47.4445 95.4031 47.1875 95.2318 47.0163 95.1462C46.7593 94.9749 46.5881 94.9749 46.2455 94.9749H43.0768V98.058H43.1624Z" fill="white"></path> <path d="M50.6987 98.8287V90.5216H51.8121V93.4334H53.6961C54.6382 93.4334 55.4089 93.6903 55.8371 94.2042C56.351 94.718 56.6079 95.3175 56.6079 96.0882C56.6079 96.6021 56.5223 97.0303 56.2653 97.4585C56.0084 97.8867 55.7515 98.2292 55.3233 98.4862C54.8951 98.7431 54.3813 98.8287 53.7818 98.8287H50.6987ZM51.8121 97.9723H53.6105C54.0387 97.9723 54.3813 97.8867 54.6382 97.7154C54.8951 97.5441 55.0664 97.2872 55.2377 97.0303C55.3233 96.7734 55.4089 96.4308 55.4089 96.0882C55.4089 95.7457 55.3233 95.4887 55.2377 95.2318C55.152 94.9749 54.8951 94.718 54.6382 94.5467C54.3813 94.3754 53.9531 94.2898 53.5249 94.2898H51.7264V97.9723H51.8121ZM58.0638 98.8287V90.5216H59.1771V98.8287H58.0638Z" fill="white"></path> <path d="M65.2576 99C64.6581 99 64.0586 98.9144 63.5448 98.6574C63.0309 98.4005 62.6027 98.1436 62.1745 97.7154C61.832 97.2872 61.4894 96.859 61.3181 96.3452C61.1469 95.8313 60.9756 95.2318 60.9756 94.718C60.9756 93.9472 61.1469 93.1765 61.4894 92.577C61.832 91.8919 62.3458 91.378 62.9453 91.0355C63.5448 90.6929 64.3156 90.436 65.0863 90.436C65.8571 90.436 66.5422 90.6073 67.1417 90.9498C67.7412 91.2924 68.1694 91.8062 68.5119 92.4057L67.4842 92.7483C67.2273 92.3201 66.8848 91.9775 66.4566 91.7206C66.0284 91.4637 65.6002 91.378 65.0863 91.378C64.5725 91.378 64.0586 91.5493 63.5448 91.8062C63.1166 92.0631 62.6884 92.4913 62.4315 93.0052C62.1746 93.519 62.0033 94.0329 62.0033 94.718C62.0033 95.3175 62.1746 95.917 62.4315 96.4308C62.6884 96.9446 63.1166 97.3728 63.5448 97.6298C63.973 97.9723 64.4868 98.058 65.0863 98.058C65.4289 98.058 65.7714 97.9723 66.114 97.8867C66.4566 97.801 66.7135 97.5441 66.9704 97.3728C67.2273 97.1159 67.3986 96.9446 67.4842 96.6877L68.5976 97.0303C68.4263 97.4585 68.1694 97.801 67.8268 98.058C67.4842 98.4005 67.056 98.6574 66.6278 98.8287C66.2853 98.9144 65.7714 99 65.2576 99Z" fill="white"></path> <path d="M73.9071 99C73.3076 99 72.7938 98.9144 72.28 98.6574C71.7661 98.4005 71.3379 98.1436 70.9954 97.7154C70.6528 97.2872 70.3102 96.859 70.1389 96.3452C69.9677 95.8313 69.7964 95.3175 69.7964 94.718C69.7964 94.1185 69.882 93.6047 70.1389 93.0908C70.3102 92.577 70.6528 92.1488 70.9954 91.7206C71.3379 91.2924 71.8518 91.0355 72.28 90.7785C72.7938 90.5216 73.3076 90.436 73.9071 90.436C74.5066 90.436 75.0204 90.5216 75.5343 90.7785C76.0481 91.0355 76.4763 91.2924 76.8189 91.7206C77.1614 92.1488 77.504 92.577 77.6753 93.0908C77.8466 93.6047 78.0178 94.2042 78.0178 94.718C78.0178 95.3175 77.9322 95.8313 77.6753 96.3452C77.504 96.859 77.1614 97.2872 76.8189 97.7154C76.4763 98.1436 76.0481 98.4005 75.5343 98.6574C75.0204 98.8287 74.5066 99 73.9071 99ZM70.8241 94.718C70.8241 95.3175 70.9953 95.917 71.2523 96.4308C71.5092 96.9446 71.8518 97.3728 72.3656 97.6298C72.7938 97.8867 73.3076 98.058 73.9071 98.058C74.421 98.058 74.9348 97.8867 75.4486 97.6298C75.8768 97.3728 76.305 96.9446 76.562 96.4308C76.8189 95.917 76.9902 95.3175 76.9902 94.718C76.9902 94.1185 76.8189 93.519 76.562 93.0052C76.305 92.4913 75.8768 92.0631 75.4486 91.8062C75.0204 91.5493 74.5066 91.378 73.9071 91.378C73.3933 91.378 72.8794 91.5493 72.3656 91.8062C71.9374 92.1488 71.5092 92.4913 71.2523 93.0052C70.9953 93.519 70.8241 94.0329 70.8241 94.718Z" fill="white"></path> <path d="M79.9023 98.8287V90.5216H81.0157V94.1185H82.2146L85.0408 90.5216H86.3254L83.1567 94.5467L86.7536 98.8287H85.469L82.2146 95.0606H80.93V98.8287H79.9023Z" fill="white"></path> <path d="M91.3778 99C90.7783 99 90.2645 98.9144 89.7507 98.6574C89.2368 98.4005 88.8086 98.1436 88.4661 97.7154C88.1235 97.2872 87.7809 96.859 87.6097 96.3452C87.4384 95.8313 87.2671 95.3175 87.2671 94.718C87.2671 94.1185 87.3527 93.6047 87.6097 93.0908C87.7809 92.577 88.1235 92.1488 88.4661 91.7206C88.8086 91.2924 89.3225 91.0355 89.7507 90.7785C90.2645 90.5216 90.7783 90.436 91.3778 90.436C91.9773 90.436 92.4911 90.5216 93.005 90.7785C93.5188 91.0355 93.947 91.2924 94.2896 91.7206C94.6321 92.1488 94.9747 92.577 95.146 93.0908C95.3173 93.6047 95.4885 94.2042 95.4885 94.718C95.4885 95.3175 95.4029 95.8313 95.146 96.3452C94.9747 96.859 94.6321 97.2872 94.2896 97.7154C93.947 98.1436 93.5188 98.4005 93.005 98.6574C92.4911 98.8287 91.9773 99 91.3778 99ZM88.2948 94.718C88.2948 95.3175 88.466 95.917 88.723 96.4308C88.9799 96.9446 89.3225 97.3728 89.8363 97.6298C90.2645 97.8867 90.7783 98.058 91.3778 98.058C91.8917 98.058 92.4055 97.8867 92.9193 97.6298C93.3475 97.3728 93.7757 96.9446 94.0327 96.4308C94.2896 95.917 94.4609 95.3175 94.4609 94.718C94.4609 94.1185 94.2896 93.519 94.0327 93.0052C93.7757 92.4913 93.3475 92.0631 92.9193 91.8062C92.4911 91.5493 91.9773 91.378 91.3778 91.378C90.864 91.378 90.3501 91.5493 89.8363 91.8062C89.4081 92.1488 88.9799 92.4913 88.723 93.0052C88.466 93.519 88.2948 94.0329 88.2948 94.718Z" fill="white"></path> <path d="M97.2871 98.8287V90.5216H102.254V91.4637H98.3148V98.8287H97.2871Z" fill="white"></path> <path d="M107.392 99C106.793 99 106.279 98.9144 105.765 98.6574C105.251 98.4005 104.823 98.1436 104.481 97.7154C104.138 97.2872 103.796 96.859 103.624 96.3452C103.453 95.8313 103.282 95.3175 103.282 94.718C103.282 94.1185 103.367 93.6047 103.624 93.0908C103.796 92.577 104.138 92.1488 104.481 91.7206C104.823 91.2924 105.337 91.0355 105.765 90.7785C106.279 90.5216 106.793 90.436 107.392 90.436C107.992 90.436 108.506 90.5216 109.02 90.7785C109.533 91.0355 109.962 91.2924 110.304 91.7206C110.647 92.1488 110.989 92.577 111.161 93.0908C111.332 93.6047 111.503 94.2042 111.503 94.718C111.503 95.3175 111.418 95.8313 111.161 96.3452C110.989 96.859 110.647 97.2872 110.304 97.7154C109.962 98.1436 109.533 98.4005 109.02 98.6574C108.591 98.8287 107.992 99 107.392 99ZM104.395 94.718C104.395 95.3175 104.566 95.917 104.823 96.4308C105.08 96.9446 105.423 97.3728 105.937 97.6298C106.365 97.8867 106.879 98.058 107.478 98.058C107.992 98.058 108.506 97.8867 109.02 97.6298C109.448 97.3728 109.876 96.9446 110.133 96.4308C110.39 95.917 110.561 95.3175 110.561 94.718C110.561 94.1185 110.39 93.519 110.133 93.0052C109.876 92.4913 109.448 92.0631 109.02 91.8062C108.591 91.5493 108.078 91.378 107.478 91.378C106.964 91.378 106.45 91.5493 105.937 91.8062C105.508 92.1488 105.08 92.4913 104.823 93.0052C104.481 93.519 104.395 94.0329 104.395 94.718Z" fill="white"></path> <path d="M117.498 98.8287V90.5216H118.611V94.1185H119.896L122.722 90.5216H124.007L120.838 94.5467L124.435 98.8287H123.15L119.982 95.0606H118.697V98.8287H117.498Z" fill="white"></path> <path d="M125.035 98.8287V97.801C125.292 97.801 125.549 97.7154 125.805 97.5441C126.062 97.3728 126.234 97.1159 126.405 96.7734C126.576 96.4308 126.747 95.917 126.833 95.2318C126.919 94.5467 127.004 93.776 127.004 92.7483L127.09 90.436H132.485V98.7431H131.372V91.4637H128.032V92.9196C127.946 94.0329 127.861 95.0606 127.775 95.7457C127.604 96.5164 127.433 97.1159 127.176 97.5441C126.919 97.9723 126.576 98.3149 126.234 98.4862C125.891 98.7431 125.463 98.8287 125.035 98.8287Z" fill="white"></path> <path d="M134.284 96.4308C134.284 95.917 134.455 95.4888 134.712 95.0606C134.969 94.718 135.397 94.3754 135.996 94.2042C136.51 94.0329 137.11 93.8616 137.795 93.8616C138.223 93.8616 138.651 93.8616 139.08 93.9472C139.508 94.0329 139.936 94.1185 140.279 94.2042V93.519C140.279 92.8339 140.107 92.2344 139.679 91.8062C139.251 91.378 138.651 91.2067 137.966 91.2067C137.538 91.2067 137.11 91.2924 136.682 91.4637C136.253 91.635 135.825 91.8919 135.311 92.2344L134.883 91.4637C135.397 91.1211 135.996 90.7785 136.51 90.6073C137.024 90.436 137.538 90.3503 138.137 90.3503C139.165 90.3503 139.936 90.6073 140.535 91.2067C141.135 91.8062 141.392 92.577 141.392 93.6047V97.4585C141.392 97.6298 141.392 97.7154 141.477 97.801C141.563 97.8867 141.649 97.8867 141.82 97.8867V98.7431C141.734 98.7431 141.563 98.7431 141.477 98.7431C141.392 98.7431 141.306 98.7431 141.306 98.7431C141.049 98.7431 140.792 98.6574 140.707 98.4862C140.535 98.3149 140.45 98.1436 140.45 97.9723V97.3728C140.107 97.8867 139.593 98.2292 138.994 98.4862C138.394 98.7431 137.795 98.9144 137.195 98.9144C136.682 98.9144 136.168 98.8287 135.74 98.5718C135.311 98.3149 134.969 98.058 134.712 97.6298C134.455 97.2872 134.284 96.859 134.284 96.4308ZM139.936 97.0303C140.022 96.859 140.107 96.7734 140.193 96.6021C140.278 96.4308 140.279 96.3452 140.279 96.2595V95.0606C139.936 94.8893 139.508 94.8036 139.165 94.718C138.737 94.6324 138.394 94.6324 137.966 94.6324C137.195 94.6324 136.596 94.8036 136.082 95.0606C135.568 95.4031 135.397 95.7457 135.397 96.3452C135.397 96.6877 135.483 96.9446 135.654 97.2016C135.825 97.4585 136.082 97.7154 136.339 97.8867C136.682 98.058 137.024 98.1436 137.452 98.1436C137.966 98.1436 138.48 98.058 138.908 97.801C139.336 97.6298 139.679 97.3728 139.936 97.0303Z" fill="white"></path> <path d="M147.386 99C146.787 99 146.188 98.9144 145.674 98.6574C145.16 98.4005 144.732 98.1436 144.303 97.7154C143.961 97.2872 143.618 96.859 143.447 96.3452C143.276 95.8313 143.104 95.2318 143.104 94.718C143.104 93.9472 143.276 93.1765 143.618 92.577C143.961 91.8919 144.475 91.378 145.074 91.0355C145.674 90.6929 146.444 90.436 147.215 90.436C147.986 90.436 148.671 90.6073 149.271 90.9498C149.87 91.2924 150.298 91.8062 150.641 92.4057L149.613 92.7483C149.356 92.3201 149.014 91.9775 148.585 91.7206C148.157 91.4637 147.729 91.378 147.215 91.378C146.701 91.378 146.188 91.5493 145.674 91.8062C145.245 92.0631 144.817 92.4913 144.56 93.0052C144.303 93.519 144.132 94.0329 144.132 94.718C144.132 95.3175 144.303 95.917 144.56 96.4308C144.817 96.9446 145.245 97.3728 145.674 97.6298C146.102 97.9723 146.616 98.058 147.215 98.058C147.558 98.058 147.9 97.9723 148.243 97.8867C148.585 97.801 148.842 97.5441 149.099 97.3728C149.356 97.1159 149.527 96.9446 149.613 96.6877L150.726 97.0303C150.555 97.4585 150.298 97.801 149.956 98.058C149.613 98.4005 149.185 98.6574 148.757 98.8287C148.414 98.9144 147.9 99 147.386 99Z" fill="white"></path> <path d="M156.122 99C155.522 99 154.923 98.9144 154.409 98.6574C153.895 98.4005 153.467 98.1436 153.039 97.7154C152.696 97.2872 152.354 96.859 152.182 96.3452C152.011 95.8313 151.84 95.2318 151.84 94.718C151.84 93.9472 152.011 93.1765 152.354 92.577C152.696 91.8919 153.21 91.378 153.81 91.0355C154.409 90.6929 155.18 90.436 155.951 90.436C156.721 90.436 157.406 90.6073 158.006 90.9498C158.605 91.2924 159.034 91.8062 159.376 92.4057L158.348 92.7483C158.092 92.3201 157.749 91.9775 157.321 91.7206C156.893 91.4637 156.464 91.378 155.951 91.378C155.437 91.378 154.923 91.5493 154.409 91.8062C153.981 92.0631 153.553 92.4913 153.296 93.0052C153.039 93.519 152.868 94.0329 152.868 94.718C152.868 95.3175 153.039 95.917 153.296 96.4308C153.553 96.9446 153.981 97.3728 154.409 97.6298C154.837 97.9723 155.351 98.058 155.951 98.058C156.293 98.058 156.636 97.9723 156.978 97.8867C157.321 97.801 157.578 97.5441 157.835 97.3728C158.092 97.1159 158.263 96.9446 158.348 96.6877L159.462 97.0303C159.291 97.4585 159.034 97.801 158.691 98.058C158.348 98.4005 157.92 98.6574 157.492 98.8287C157.15 98.9144 156.636 99 156.122 99Z" fill="white"></path> <path d="M160.575 96.4308C160.575 95.917 160.746 95.4888 161.003 95.0606C161.26 94.718 161.689 94.3754 162.288 94.2042C162.802 94.0329 163.401 93.8616 164.086 93.8616C164.515 93.8616 164.943 93.8616 165.371 93.9472C165.799 94.0329 166.227 94.1185 166.57 94.2042V93.519C166.57 92.8339 166.399 92.2344 165.971 91.8062C165.542 91.378 164.943 91.2067 164.258 91.2067C163.83 91.2067 163.401 91.2924 162.973 91.4637C162.545 91.635 162.117 91.8919 161.603 92.2344L161.175 91.4637C161.689 91.1211 162.288 90.7785 162.802 90.6073C163.316 90.436 163.83 90.3503 164.429 90.3503C165.457 90.3503 166.227 90.6073 166.827 91.2067C167.426 91.8062 167.683 92.577 167.683 93.6047V97.4585C167.683 97.6298 167.683 97.7154 167.769 97.801C167.855 97.8867 167.94 97.8867 168.112 97.8867V98.7431C168.026 98.7431 167.855 98.7431 167.769 98.7431C167.683 98.7431 167.598 98.7431 167.598 98.7431C167.341 98.7431 167.084 98.6574 166.998 98.4862C166.827 98.3149 166.741 98.1436 166.741 97.9723V97.3728C166.399 97.8867 165.885 98.2292 165.285 98.4862C164.686 98.7431 164.086 98.9144 163.487 98.9144C162.973 98.9144 162.459 98.8287 162.031 98.5718C161.603 98.3149 161.26 98.058 161.003 97.6298C160.746 97.2872 160.575 96.859 160.575 96.4308ZM166.227 97.0303C166.313 96.859 166.399 96.7734 166.484 96.6021C166.57 96.4308 166.57 96.3452 166.57 96.2595V95.0606C166.227 94.8893 165.799 94.8036 165.457 94.718C165.028 94.6324 164.686 94.6324 164.258 94.6324C163.487 94.6324 162.887 94.8036 162.374 95.0606C161.86 95.4031 161.689 95.7457 161.689 96.3452C161.689 96.6877 161.774 96.9446 161.945 97.2016C162.117 97.4585 162.374 97.7154 162.631 97.8867C162.973 98.058 163.316 98.1436 163.744 98.1436C164.258 98.1436 164.772 98.058 165.2 97.801C165.628 97.6298 165.971 97.3728 166.227 97.0303Z" fill="white"></path> </svg> 